<svg width="180" height="180" viewBox="0 0 180 180" fill="none" xmlns="http://www.w3.org/2000/svg">
<g clip-path="url(#clip0_493_2)">
<path d="M0 12C0 5.37258 5.37258 0 12 0H168C174.627 0 180 5.37258 180 12V168C180 174.627 174.627 180 168 180H12C5.37258 180 0 174.627 0 168V12Z" fill="#18181B"/>
<path d="M-46 -8C-46 -14.6274 -40.6274 -20 -34 -20H78C84.6274 -20 90 -14.6274 90 -8V59C90 65.6274 84.6274 71 78 71H-34C-40.6274 71 -46 65.6274 -46 59V-8Z" fill="#DB2777"/>
<path d="M90 121C90 114.373 95.3726 109 102 109H214C220.627 109 226 114.373 226 121V188C226 194.627 220.627 200 214 200H102C95.3726 200 90 194.627 90 188V121Z" fill="#FBBF24"/>
<rect x="31" y="31" width="118" height="118" rx="12" fill="#0284C7"/>
</g>
<defs>
<clipPath id="clip0_493_2">
<path d="M0 12C0 5.37258 5.37258 0 12 0H168C174.627 0 180 5.37258 180 12V168C180 174.627 174.627 180 168 180H12C5.37258 180 0 174.627 0 168V12Z" fill="white"/>
</clipPath>
</defs>
</svg>
