<svg width="180" height="180" viewBox="0 0 180 180" fill="none" xmlns="http://www.w3.org/2000/svg">
<g clip-path="url(#clip0_493_2)">
<path d="M0 12C0 5.37258 5.37258 0 12 0H168C174.627 0 180 5.37258 180 12V168C180 174.627 174.627 180 168 180H12C5.37258 180 0 174.627 0 168V12Z" fill="#18181B"/>
<path d="M22 -8C22 -14.6274 27.3726 -20 34 -20H146C152.627 -20 158 -14.6274 158 -8V59C158 65.6274 152.627 71 146 71H34C27.3726 71 22 65.6274 22 59V-8Z" fill="#DB2777"/>
<path d="M22 121C22 114.373 27.3726 109 34 109H146C152.627 109 158 114.373 158 121V188C158 194.627 152.627 200 146 200H34C27.3726 200 22 194.627 22 188V121Z" fill="#FBBF24"/>
<rect x="31" y="31" width="118" height="118" rx="12" fill="#0284C7"/>
</g>
<defs>
<clipPath id="clip0_493_2">
<path d="M0 12C0 5.37258 5.37258 0 12 0H168C174.627 0 180 5.37258 180 12V168C180 174.627 174.627 180 168 180H12C5.37258 180 0 174.627 0 168V12Z" fill="white"/>
</clipPath>
</defs>
</svg>
